<?xml version="1.0" encoding="UTF-8"?>
<!-- Generator: Adobe Illustrator 15.0.2, SVG Export Plug-In . SVG Version: 6.00 Build 0)  -->
<!DOCTYPE svg PUBLIC "-//W3C//DTD SVG 1.1//EN" "http://www.w3.org/Graphics/SVG/1.1/DTD/svg11.dtd">
<svg xmlns="http://www.w3.org/2000/svg" xmlns:xlink="http://www.w3.org/1999/xlink" version="1.1" id="Layer_1" x="0px" y="0px" width="1024px" height="1024px" viewBox="0 0 1024 1024" enable-background="new 0 0 1024 1024" xml:space="preserve">
<g>
	<path d="M371.4,355.4L113.8,952H910L652.6,355.4H371.4z M537.8,922.4H486.4v-103H537.8V922.4z M537.8,716.2H486.4v-103H537.8V716.2   z M537.8,510.2H486.4v-103H537.8V510.2z" fill="#000000"/>
	<path d="M0,94.2V529.6h202.2c-0.6-8.6-1.2-17.199-1.2-25.8c0-170,138-308,308-308c170.2,0,308,138,308,308c0,8.8-0.6,17.2-1.4,25.8   H1024V94.2H0z" fill="#000000"/>
</g>
</svg>
